<svg xmlns="http://www.w3.org/2000/svg" width="295.925" height="109.932" viewBox="0 0 295.925 109.932"><path d="M21.39,42.96V54.949H74.468l-17.787,23.6,9.561,7.22L98.506,42.96Z" transform="translate(-21.39 -42.911)" fill="#3d5d6b"/><path d="M83.159,75.98l-7.232,9.586A26.55,26.55,0,1,1,33.4,106.846H21.39A38.564,38.564,0,1,0,83.159,75.98" transform="translate(-21.39 -35.454)" fill="#3d5d6b"/><path d="M130.043,42.96H94.09V152.842h11.989V54.949h23.953a42.953,42.953,0,0,1,0,85.905l-11.964.025v11.964h11.964a54.941,54.941,0,1,0,.012-109.882" transform="translate(-4.973 -42.911)" fill="#3d5d6b"/><path d="M178.04,42.92V152.839h11.976V71.874l39.974,39.949,8.458-8.47Z" transform="translate(13.985 -42.92)" fill="#3d5d6b"/><path d="M270.812,42.92,227.32,86.4l8.483,8.495,23.021-23.021v80.965h11.989Z" transform="translate(25.113 -42.92)" fill="#3d5d6b"/></svg>