<?xml version="1.0" encoding="utf-8"?>
<!-- Generator: Adobe Illustrator 24.0.3, SVG Export Plug-In . SVG Version: 6.00 Build 0)  -->
<svg version="1.1" id="Calque_1" xmlns="http://www.w3.org/2000/svg" xmlns:xlink="http://www.w3.org/1999/xlink" x="0px" y="0px"
	 viewBox="0 0 133.23 62.36" style="enable-background:new 0 0 133.23 62.36;" xml:space="preserve">
<style type="text/css">
	.st0{fill:#FFFFFF;}
	.st1{font-family:'Quicksand-Regular';}
	.st2{font-size:7.1138px;}
</style>
<g>
	<g>
		<polygon class="st0" points="0.51,0.83 0.51,6.19 24.25,6.19 16.29,16.75 20.57,19.97 35,0.83 		"/>
		<path class="st0" d="M28.13,18.93l-3.23,4.29c2.87,2.17,4.73,5.61,4.73,9.48c0,6.56-5.32,11.87-11.87,11.87
			c-6.55,0-11.86-5.3-11.87-11.84H0.51c0.01,9.51,7.73,17.21,17.25,17.21C27.28,49.94,35,42.23,35,32.7
			C35,27.07,32.3,22.07,28.13,18.93"/>
		<path class="st0" d="M56.44,0.83H40.36v49.14h5.36V6.19h10.71c10.61,0,19.21,8.6,19.21,19.21c0,10.61-8.6,19.21-19.21,19.21
			l-5.35,0.01v5.35h5.35c13.57,0,24.57-11,24.57-24.57C81.01,11.83,70.01,0.83,56.44,0.83"/>
		<polygon class="st0" points="86.38,0.81 86.38,49.96 91.74,49.96 91.74,13.76 109.62,31.62 113.4,27.83 		"/>
		<polygon class="st0" points="132.85,0.81 113.4,20.25 117.19,24.05 127.48,13.76 127.48,49.96 132.85,49.96 		"/>
	</g>
	<text transform="matrix(1 0 0 1 0.3301 60.0964)" class="st0 st1 st2"> </text>
	<g>
		<path class="st0" d="M2.83,60.16c-0.03,0.01-0.06,0.01-0.08,0.01s-0.04,0-0.05-0.01c-0.04-0.01-0.07-0.04-0.09-0.09
			c0,0-0.01,0-0.01-0.01L2.6,60.05l-1.95-4.64c-0.02-0.04-0.02-0.09,0-0.13c0.02-0.05,0.05-0.08,0.09-0.1
			c0.04-0.02,0.09-0.02,0.13,0c0.05,0.02,0.08,0.05,0.1,0.09l1.8,4.29l1.8-4.29c0.01-0.04,0.04-0.07,0.09-0.09
			c0.05-0.02,0.09-0.02,0.13,0c0.04,0.02,0.07,0.05,0.09,0.1c0.02,0.05,0.02,0.09,0,0.13l-1.95,4.6C2.93,60.09,2.9,60.14,2.83,60.16
			L2.83,60.16z"/>
		<path class="st0" d="M6.4,60v-4.69c0-0.05,0.02-0.09,0.05-0.12c0.03-0.03,0.07-0.05,0.12-0.05s0.09,0.02,0.13,0.05
			c0.04,0.03,0.05,0.07,0.05,0.12V60c0,0.05-0.02,0.09-0.05,0.12c-0.04,0.03-0.08,0.05-0.13,0.05s-0.09-0.02-0.12-0.05
			C6.42,60.09,6.4,60.05,6.4,60z"/>
		<path class="st0" d="M8.75,56.38c0.01,0.48,0.49,0.81,1.45,0.99h0.01c0.55,0.1,0.98,0.25,1.28,0.46c0.37,0.24,0.55,0.56,0.55,0.95
			c0,0.4-0.19,0.73-0.56,1c-0.37,0.27-0.81,0.4-1.3,0.4c-0.63,0-1.25-0.25-1.85-0.73c-0.08-0.07-0.08-0.14-0.02-0.22
			c0.03-0.03,0.06-0.05,0.11-0.06c0.04,0,0.08,0.01,0.12,0.04c0.54,0.44,1.09,0.65,1.65,0.65c0.44,0,0.81-0.11,1.11-0.33
			c0.29-0.21,0.43-0.46,0.43-0.75c0-0.54-0.52-0.9-1.58-1.1h-0.01c-1.14-0.21-1.7-0.64-1.7-1.3c0-0.37,0.17-0.69,0.51-0.94
			c0.34-0.25,0.75-0.37,1.23-0.37c0.21,0,0.41,0.03,0.62,0.1c0.21,0.07,0.37,0.14,0.49,0.2c0.11,0.06,0.26,0.16,0.45,0.28
			c0.09,0.06,0.1,0.13,0.04,0.22c-0.05,0.09-0.12,0.1-0.22,0.04c-0.17-0.11-0.31-0.2-0.42-0.26c-0.11-0.06-0.25-0.12-0.43-0.18
			c-0.18-0.06-0.36-0.09-0.53-0.09c-0.4,0-0.75,0.1-1.03,0.3C8.89,55.89,8.75,56.12,8.75,56.38z"/>
		<path class="st0" d="M13.35,58.14v-2.83c0-0.05,0.02-0.09,0.05-0.12c0.03-0.03,0.07-0.05,0.12-0.05s0.09,0.02,0.13,0.05
			c0.04,0.03,0.05,0.07,0.05,0.12v2.83c0,0.47,0.16,0.86,0.49,1.19c0.33,0.33,0.72,0.49,1.18,0.5c0.47,0,0.87-0.17,1.2-0.5
			c0.33-0.33,0.49-0.72,0.49-1.19v-2.83c0-0.05,0.02-0.09,0.05-0.12c0.03-0.03,0.07-0.05,0.12-0.05c0.05,0,0.09,0.02,0.13,0.05
			c0.04,0.03,0.05,0.07,0.05,0.12v2.83c0,0.56-0.2,1.04-0.6,1.44c-0.4,0.4-0.88,0.6-1.44,0.6c-0.56,0-1.04-0.2-1.44-0.6
			S13.35,58.7,13.35,58.14z"/>
		<path class="st0" d="M22.62,60.17l-0.06,0.01c-0.08,0-0.14-0.04-0.17-0.12l-0.45-1.19h-2.29l-0.45,1.19
			c-0.03,0.08-0.08,0.12-0.17,0.12l-0.06-0.01c-0.04-0.02-0.08-0.05-0.1-0.1c-0.02-0.05-0.02-0.09,0-0.13l1.75-4.67
			c0.03-0.07,0.09-0.11,0.18-0.11c0.09,0,0.14,0.04,0.17,0.11l1.75,4.67c0.02,0.04,0.02,0.09,0,0.13
			C22.7,60.12,22.67,60.15,22.62,60.17z M20.8,55.82l-1.02,2.7h2.03L20.8,55.82z"/>
		<path class="st0" d="M26.6,60.18h-2.59c-0.05,0-0.09-0.02-0.12-0.05c-0.03-0.03-0.05-0.07-0.05-0.12v-4.69
			c0-0.05,0.02-0.09,0.05-0.12c0.03-0.03,0.07-0.05,0.12-0.05c0.05,0,0.09,0.02,0.13,0.05c0.04,0.03,0.05,0.07,0.05,0.12v4.51h2.41
			c0.05,0,0.09,0.02,0.13,0.05c0.04,0.04,0.05,0.08,0.05,0.13s-0.02,0.09-0.05,0.12C26.69,60.16,26.65,60.18,26.6,60.18z"/>
		<path class="st0" d="M27.94,60v-4.69c0-0.05,0.02-0.09,0.05-0.12c0.03-0.03,0.07-0.05,0.12-0.05c0.05,0,0.09,0.02,0.13,0.05
			c0.04,0.03,0.05,0.07,0.05,0.12V60c0,0.05-0.02,0.09-0.05,0.12c-0.04,0.03-0.08,0.05-0.13,0.05c-0.05,0-0.09-0.02-0.12-0.05
			C27.95,60.09,27.94,60.05,27.94,60z"/>
		<path class="st0" d="M30.29,56.38c0.01,0.48,0.49,0.81,1.45,0.99h0.01c0.55,0.1,0.98,0.25,1.28,0.46
			c0.37,0.24,0.55,0.56,0.55,0.95c0,0.4-0.19,0.73-0.56,1c-0.37,0.27-0.81,0.4-1.3,0.4c-0.63,0-1.25-0.25-1.85-0.73
			c-0.08-0.07-0.08-0.14-0.02-0.22c0.03-0.03,0.06-0.05,0.11-0.06c0.04,0,0.08,0.01,0.12,0.04c0.54,0.44,1.09,0.65,1.65,0.65
			c0.44,0,0.81-0.11,1.11-0.33c0.29-0.21,0.43-0.46,0.43-0.75c0-0.54-0.52-0.9-1.58-1.1h-0.01c-1.14-0.21-1.7-0.64-1.7-1.3
			c0-0.37,0.17-0.69,0.51-0.94c0.34-0.25,0.75-0.37,1.23-0.37c0.21,0,0.41,0.03,0.62,0.1c0.21,0.07,0.37,0.14,0.49,0.2
			c0.11,0.06,0.26,0.16,0.45,0.28c0.09,0.06,0.1,0.13,0.04,0.22c-0.05,0.09-0.12,0.1-0.22,0.04c-0.17-0.11-0.31-0.2-0.42-0.26
			c-0.11-0.06-0.25-0.12-0.43-0.18c-0.18-0.06-0.36-0.09-0.53-0.09c-0.4,0-0.75,0.1-1.03,0.3C30.42,55.89,30.29,56.12,30.29,56.38z"
			/>
		<path class="st0" d="M38.31,60.17l-0.06,0.01c-0.08,0-0.14-0.04-0.17-0.12l-0.45-1.19h-2.29l-0.45,1.19
			c-0.03,0.08-0.08,0.12-0.17,0.12l-0.06-0.01c-0.04-0.02-0.08-0.05-0.1-0.1c-0.02-0.05-0.02-0.09,0-0.13l1.75-4.67
			c0.03-0.07,0.09-0.11,0.18-0.11c0.09,0,0.14,0.04,0.17,0.11l1.75,4.67c0.02,0.04,0.02,0.09,0,0.13
			C38.38,60.12,38.35,60.15,38.31,60.17z M36.49,55.82l-1.02,2.7h2.03L36.49,55.82z"/>
		<path class="st0" d="M40.82,60V55.5h-1.52c-0.05,0-0.09-0.02-0.12-0.05c-0.03-0.04-0.05-0.08-0.05-0.13
			c0-0.05,0.02-0.09,0.05-0.12c0.03-0.03,0.07-0.05,0.12-0.05h3.38c0.05,0,0.09,0.02,0.12,0.05c0.03,0.03,0.05,0.07,0.05,0.12
			c0,0.05-0.02,0.09-0.05,0.13c-0.03,0.04-0.07,0.05-0.12,0.05h-1.52V60c0,0.05-0.02,0.09-0.05,0.12c-0.03,0.03-0.07,0.05-0.12,0.05
			s-0.09-0.02-0.12-0.05C40.84,60.09,40.82,60.05,40.82,60z"/>
		<path class="st0" d="M44.23,60v-4.69c0-0.05,0.02-0.09,0.05-0.12c0.03-0.03,0.07-0.05,0.12-0.05s0.09,0.02,0.13,0.05
			c0.04,0.03,0.05,0.07,0.05,0.12V60c0,0.05-0.02,0.09-0.05,0.12c-0.04,0.03-0.08,0.05-0.13,0.05s-0.09-0.02-0.12-0.05
			C44.25,60.09,44.23,60.05,44.23,60z"/>
		<path class="st0" d="M46.15,57.62c0-0.71,0.24-1.31,0.71-1.81c0.47-0.5,1.04-0.74,1.71-0.74s1.24,0.25,1.71,0.74
			c0.46,0.5,0.7,1.1,0.7,1.81c0,0.71-0.24,1.31-0.7,1.81c-0.47,0.5-1.03,0.74-1.71,0.74s-1.25-0.25-1.71-0.74
			C46.39,58.94,46.16,58.33,46.15,57.62z M48.57,55.43c-0.57,0-1.05,0.21-1.46,0.63c-0.4,0.42-0.61,0.94-0.61,1.56
			c0,0.62,0.2,1.14,0.61,1.56c0.41,0.43,0.89,0.64,1.46,0.64c0.57,0,1.05-0.21,1.45-0.64c0.4-0.43,0.61-0.95,0.61-1.56
			c0-0.62-0.21-1.14-0.61-1.56C49.62,55.64,49.14,55.43,48.57,55.43z"/>
		<path class="st0" d="M55.87,60.08l-3.02-4.2V60c0,0.05-0.02,0.09-0.05,0.12c-0.03,0.03-0.07,0.05-0.12,0.05
			c-0.05,0-0.09-0.02-0.12-0.05c-0.03-0.03-0.05-0.07-0.05-0.12v-4.62c-0.02-0.08-0.01-0.13,0.04-0.17c0.05-0.04,0.1-0.05,0.15-0.05
			c0.05,0.01,0.09,0.03,0.11,0.07l3.05,4.23v-4.1c0-0.05,0.02-0.09,0.05-0.12c0.03-0.03,0.07-0.05,0.12-0.05
			c0.05,0,0.09,0.02,0.13,0.05c0.04,0.03,0.05,0.07,0.05,0.12V60c0,0.05-0.02,0.09-0.05,0.12c-0.04,0.03-0.08,0.05-0.13,0.05
			s-0.1-0.02-0.13-0.06L55.87,60.08z"/>
		<path class="st0" d="M58.24,56.38c0.01,0.48,0.49,0.81,1.45,0.99h0.01c0.55,0.1,0.98,0.25,1.28,0.46
			c0.37,0.24,0.55,0.56,0.55,0.95c0,0.4-0.19,0.73-0.56,1c-0.37,0.27-0.81,0.4-1.3,0.4c-0.63,0-1.25-0.25-1.85-0.73
			c-0.08-0.07-0.08-0.14-0.02-0.22c0.03-0.03,0.06-0.05,0.11-0.06c0.04,0,0.08,0.01,0.12,0.04c0.54,0.44,1.09,0.65,1.65,0.65
			c0.44,0,0.81-0.11,1.11-0.33c0.29-0.21,0.43-0.46,0.43-0.75c0-0.54-0.52-0.9-1.58-1.1h-0.01c-1.14-0.21-1.7-0.64-1.7-1.3
			c0-0.37,0.17-0.69,0.51-0.94c0.34-0.25,0.75-0.37,1.23-0.37c0.21,0,0.41,0.03,0.62,0.1c0.21,0.07,0.37,0.14,0.49,0.2
			c0.11,0.06,0.26,0.16,0.45,0.28c0.09,0.06,0.1,0.13,0.04,0.22c-0.05,0.09-0.12,0.1-0.22,0.04c-0.17-0.11-0.31-0.2-0.42-0.26
			c-0.11-0.06-0.25-0.12-0.43-0.18c-0.18-0.06-0.36-0.09-0.53-0.09c-0.4,0-0.75,0.1-1.03,0.3C58.37,55.89,58.24,56.12,58.24,56.38z"
			/>
		<path class="st0" d="M68.41,60.17l-0.06,0.01c-0.08,0-0.14-0.04-0.17-0.12l-0.45-1.19h-2.29L65,60.06
			c-0.03,0.08-0.08,0.12-0.17,0.12l-0.06-0.01c-0.04-0.02-0.08-0.05-0.1-0.1c-0.02-0.05-0.02-0.09,0-0.13l1.75-4.67
			c0.03-0.07,0.09-0.11,0.18-0.11c0.09,0,0.14,0.04,0.17,0.11l1.75,4.67c0.02,0.04,0.02,0.09,0,0.13
			C68.49,60.12,68.46,60.15,68.41,60.17z M66.59,55.82l-1.02,2.7h2.03L66.59,55.82z"/>
		<path class="st0" d="M72.59,60.1c-0.31,0-0.46-0.35-0.46-1.06c0-0.31-0.14-0.56-0.41-0.76c-0.2-0.14-0.4-0.23-0.6-0.26
			c-0.01,0-0.01-0.01-0.01-0.01h-1.22V60c0,0.05-0.02,0.09-0.05,0.12c-0.04,0.03-0.08,0.05-0.13,0.05s-0.09-0.02-0.12-0.05
			c-0.03-0.03-0.05-0.07-0.05-0.12v-4.69c0-0.04,0.02-0.08,0.05-0.11c0.03-0.03,0.07-0.05,0.11-0.06h1.44c0.4,0,0.74,0.14,1.01,0.42
			c0.28,0.28,0.42,0.62,0.42,1.02c0,0.28-0.08,0.54-0.23,0.78c-0.15,0.24-0.35,0.41-0.6,0.52l0.07,0.04
			c0.19,0.11,0.35,0.26,0.48,0.45c0.13,0.19,0.19,0.44,0.19,0.76c0,0.32,0.05,0.53,0.14,0.62c0.1-0.01,0.17,0.03,0.19,0.11
			c0.02,0.12-0.01,0.19-0.11,0.23h-0.01l-0.07,0.01H72.59z M71.9,57.34c0.21-0.21,0.31-0.46,0.31-0.76s-0.11-0.55-0.32-0.76
			c-0.21-0.21-0.47-0.32-0.77-0.32h-1.24v2.17h1.27C71.45,57.66,71.69,57.55,71.9,57.34z"/>
		<path class="st0" d="M74.67,59.43c-0.51-0.5-0.77-1.1-0.77-1.8s0.26-1.31,0.77-1.8c0.51-0.5,1.13-0.75,1.85-0.75
			c0.6,0,1.15,0.18,1.63,0.55c0.04,0.03,0.06,0.08,0.07,0.13c0.01,0.05-0.01,0.09-0.04,0.13c-0.03,0.04-0.07,0.07-0.12,0.07
			c-0.05,0-0.09-0.01-0.13-0.04c-0.42-0.33-0.89-0.49-1.41-0.49c-0.63,0-1.16,0.22-1.6,0.65c-0.44,0.43-0.66,0.95-0.66,1.56
			c0,0.61,0.22,1.13,0.66,1.55c0.44,0.43,0.96,0.64,1.54,0.64c0.59,0,1.07-0.16,1.46-0.49c0.04-0.03,0.09-0.04,0.14-0.03
			s0.09,0.03,0.11,0.08c0.03,0.03,0.05,0.08,0.04,0.13c-0.01,0.05-0.03,0.09-0.06,0.12c-0.47,0.36-1.02,0.55-1.63,0.55
			C75.79,60.18,75.18,59.93,74.67,59.43z"/>
		<path class="st0" d="M82.61,60v-2.17h-2.59V60c0,0.05-0.02,0.09-0.05,0.12c-0.04,0.03-0.08,0.05-0.13,0.05s-0.09-0.02-0.12-0.05
			c-0.03-0.03-0.05-0.07-0.05-0.12v-4.69c0-0.05,0.02-0.09,0.05-0.12c0.03-0.03,0.07-0.05,0.12-0.05s0.09,0.02,0.13,0.05
			c0.04,0.03,0.05,0.07,0.05,0.12v2.17h2.59v-2.17c0-0.05,0.02-0.09,0.05-0.12c0.03-0.03,0.07-0.05,0.12-0.05
			c0.05,0,0.09,0.02,0.13,0.05c0.04,0.03,0.05,0.07,0.05,0.12V60c0,0.05-0.02,0.09-0.05,0.12c-0.04,0.03-0.08,0.05-0.13,0.05
			c-0.05,0-0.09-0.02-0.12-0.05C82.62,60.09,82.61,60.05,82.61,60z"/>
		<path class="st0" d="M84.81,60v-4.69c0-0.05,0.02-0.09,0.05-0.12c0.03-0.03,0.07-0.05,0.12-0.05s0.09,0.02,0.13,0.05
			c0.04,0.03,0.05,0.07,0.05,0.12V60c0,0.05-0.02,0.09-0.05,0.12c-0.04,0.03-0.08,0.05-0.13,0.05s-0.09-0.02-0.12-0.05
			C84.83,60.09,84.81,60.05,84.81,60z"/>
		<path class="st0" d="M88.26,60V55.5h-1.52c-0.05,0-0.09-0.02-0.12-0.05c-0.03-0.04-0.05-0.08-0.05-0.13
			c0-0.05,0.02-0.09,0.05-0.12c0.03-0.03,0.07-0.05,0.12-0.05h3.38c0.05,0,0.09,0.02,0.12,0.05c0.03,0.03,0.05,0.07,0.05,0.12
			c0,0.05-0.02,0.09-0.05,0.13c-0.03,0.04-0.07,0.05-0.12,0.05H88.6V60c0,0.05-0.02,0.09-0.05,0.12c-0.03,0.03-0.07,0.05-0.12,0.05
			c-0.05,0-0.09-0.02-0.12-0.05C88.28,60.09,88.26,60.05,88.26,60z"/>
		<path class="st0" d="M91.62,60v-4.69c0-0.05,0.02-0.09,0.05-0.12c0.03-0.03,0.07-0.05,0.12-0.05h2.59c0.05,0,0.09,0.02,0.12,0.05
			c0.03,0.03,0.05,0.08,0.05,0.13c0,0.05-0.02,0.09-0.05,0.13c-0.03,0.03-0.07,0.05-0.12,0.05h-2.41v1.99h2.11
			c0.05,0,0.09,0.02,0.12,0.05c0.03,0.04,0.05,0.08,0.05,0.13c0,0.05-0.02,0.09-0.05,0.12c-0.03,0.03-0.07,0.05-0.12,0.05h-2.11
			v1.98h2.41c0.05,0,0.09,0.02,0.12,0.05c0.03,0.03,0.05,0.08,0.05,0.13c0,0.05-0.02,0.09-0.05,0.13c-0.03,0.03-0.07,0.05-0.12,0.05
			h-2.6c-0.04,0-0.08-0.02-0.11-0.05C91.63,60.09,91.62,60.05,91.62,60z"/>
		<path class="st0" d="M96.42,59.43c-0.51-0.5-0.77-1.1-0.77-1.8s0.26-1.31,0.77-1.8c0.51-0.5,1.13-0.75,1.85-0.75
			c0.6,0,1.15,0.18,1.63,0.55c0.04,0.03,0.06,0.08,0.07,0.13c0.01,0.05-0.01,0.09-0.04,0.13c-0.03,0.04-0.07,0.07-0.12,0.07
			c-0.05,0-0.09-0.01-0.13-0.04c-0.42-0.33-0.89-0.49-1.41-0.49c-0.63,0-1.16,0.22-1.6,0.65c-0.44,0.43-0.66,0.95-0.66,1.56
			c0,0.61,0.22,1.13,0.66,1.55c0.44,0.43,0.96,0.64,1.54,0.64c0.59,0,1.07-0.16,1.46-0.49c0.04-0.03,0.09-0.04,0.14-0.03
			s0.09,0.03,0.11,0.08c0.03,0.03,0.05,0.08,0.04,0.13c-0.01,0.05-0.03,0.09-0.06,0.12c-0.47,0.36-1.02,0.55-1.63,0.55
			C97.55,60.18,96.93,59.93,96.42,59.43z"/>
		<path class="st0" d="M102.73,60V55.5h-1.52c-0.05,0-0.09-0.02-0.12-0.05c-0.03-0.04-0.05-0.08-0.05-0.13
			c0-0.05,0.02-0.09,0.05-0.12c0.03-0.03,0.07-0.05,0.12-0.05h3.38c0.05,0,0.09,0.02,0.12,0.05c0.03,0.03,0.05,0.07,0.05,0.12
			c0,0.05-0.02,0.09-0.05,0.13c-0.03,0.04-0.07,0.05-0.12,0.05h-1.52V60c0,0.05-0.02,0.09-0.05,0.12c-0.03,0.03-0.07,0.05-0.12,0.05
			c-0.05,0-0.09-0.02-0.12-0.05C102.74,60.09,102.73,60.05,102.73,60z"/>
		<path class="st0" d="M106.09,58.14v-2.83c0-0.05,0.02-0.09,0.05-0.12c0.03-0.03,0.07-0.05,0.12-0.05s0.09,0.02,0.13,0.05
			c0.04,0.03,0.05,0.07,0.05,0.12v2.83c0,0.47,0.16,0.86,0.49,1.19c0.33,0.33,0.72,0.49,1.18,0.5c0.47,0,0.87-0.17,1.2-0.5
			c0.33-0.33,0.49-0.72,0.49-1.19v-2.83c0-0.05,0.02-0.09,0.05-0.12c0.03-0.03,0.07-0.05,0.12-0.05s0.09,0.02,0.13,0.05
			c0.04,0.03,0.05,0.07,0.05,0.12v2.83c0,0.56-0.2,1.04-0.6,1.44s-0.88,0.6-1.44,0.6c-0.56,0-1.04-0.2-1.44-0.6
			C106.29,59.18,106.09,58.7,106.09,58.14z"/>
		<path class="st0" d="M114.9,60.1c-0.31,0-0.46-0.35-0.46-1.06c0-0.31-0.14-0.56-0.41-0.76c-0.2-0.14-0.4-0.23-0.6-0.26
			c-0.01,0-0.01-0.01-0.01-0.01h-1.22V60c0,0.05-0.02,0.09-0.05,0.12c-0.04,0.03-0.08,0.05-0.13,0.05s-0.09-0.02-0.12-0.05
			c-0.03-0.03-0.05-0.07-0.05-0.12v-4.69c0-0.04,0.02-0.08,0.05-0.11c0.03-0.03,0.07-0.05,0.11-0.06h1.44c0.4,0,0.74,0.14,1.01,0.42
			c0.28,0.28,0.42,0.62,0.42,1.02c0,0.28-0.08,0.54-0.23,0.78c-0.15,0.24-0.35,0.41-0.6,0.52l0.07,0.04
			c0.19,0.11,0.35,0.26,0.48,0.45c0.13,0.19,0.19,0.44,0.19,0.76c0,0.32,0.05,0.53,0.14,0.62c0.1-0.01,0.17,0.03,0.19,0.11
			c0.02,0.12-0.01,0.19-0.11,0.23h-0.01l-0.07,0.01H114.9z M114.21,57.34c0.21-0.21,0.31-0.46,0.31-0.76s-0.11-0.55-0.32-0.76
			c-0.21-0.21-0.47-0.32-0.77-0.32h-1.24v2.17h1.27C113.76,57.66,114,57.55,114.21,57.34z"/>
		<path class="st0" d="M119.86,60.17l-0.06,0.01c-0.08,0-0.14-0.04-0.17-0.12l-0.45-1.19h-2.29l-0.45,1.19
			c-0.03,0.08-0.08,0.12-0.17,0.12l-0.06-0.01c-0.04-0.02-0.08-0.05-0.1-0.1c-0.02-0.05-0.02-0.09,0-0.13l1.75-4.67
			c0.03-0.07,0.09-0.11,0.18-0.11c0.09,0,0.14,0.04,0.17,0.11l1.75,4.67c0.02,0.04,0.02,0.09,0,0.13
			C119.94,60.12,119.91,60.15,119.86,60.17z M118.04,55.82l-1.02,2.7h2.03L118.04,55.82z"/>
		<path class="st0" d="M123.84,60.18h-2.59c-0.05,0-0.09-0.02-0.12-0.05c-0.03-0.03-0.05-0.07-0.05-0.12v-4.69
			c0-0.05,0.02-0.09,0.05-0.12c0.03-0.03,0.07-0.05,0.12-0.05s0.09,0.02,0.13,0.05c0.04,0.03,0.05,0.07,0.05,0.12v4.51h2.41
			c0.05,0,0.09,0.02,0.13,0.05c0.04,0.04,0.05,0.08,0.05,0.13s-0.02,0.09-0.05,0.12C123.93,60.16,123.89,60.18,123.84,60.18z"/>
		<path class="st0" d="M125.13,60v-4.69c0-0.05,0.02-0.09,0.05-0.12c0.03-0.03,0.07-0.05,0.12-0.05h2.59c0.05,0,0.09,0.02,0.12,0.05
			c0.03,0.03,0.05,0.08,0.05,0.13c0,0.05-0.02,0.09-0.05,0.13c-0.03,0.03-0.07,0.05-0.12,0.05h-2.41v1.99h2.11
			c0.05,0,0.09,0.02,0.12,0.05c0.03,0.04,0.05,0.08,0.05,0.13c0,0.05-0.02,0.09-0.05,0.12c-0.03,0.03-0.07,0.05-0.12,0.05h-2.11
			v1.98h2.41c0.05,0,0.09,0.02,0.12,0.05c0.03,0.03,0.05,0.08,0.05,0.13c0,0.05-0.02,0.09-0.05,0.13c-0.03,0.03-0.07,0.05-0.12,0.05
			h-2.6c-0.04,0-0.08-0.02-0.11-0.05C125.14,60.09,125.13,60.05,125.13,60z"/>
		<path class="st0" d="M129.6,56.38c0.01,0.48,0.49,0.81,1.45,0.99h0.01c0.55,0.1,0.98,0.25,1.28,0.46
			c0.37,0.24,0.55,0.56,0.55,0.95c0,0.4-0.19,0.73-0.56,1c-0.37,0.27-0.81,0.4-1.3,0.4c-0.63,0-1.25-0.25-1.85-0.73
			c-0.08-0.07-0.08-0.14-0.02-0.22c0.03-0.03,0.06-0.05,0.11-0.06s0.08,0.01,0.12,0.04c0.54,0.44,1.09,0.65,1.65,0.65
			c0.44,0,0.81-0.11,1.11-0.33c0.29-0.21,0.43-0.46,0.43-0.75c0-0.54-0.52-0.9-1.58-1.1h-0.01c-1.14-0.21-1.7-0.64-1.7-1.3
			c0-0.37,0.17-0.69,0.51-0.94c0.34-0.25,0.75-0.37,1.23-0.37c0.21,0,0.41,0.03,0.62,0.1c0.21,0.07,0.37,0.14,0.49,0.2
			c0.11,0.06,0.26,0.16,0.45,0.28c0.09,0.06,0.1,0.13,0.04,0.22c-0.05,0.09-0.12,0.1-0.22,0.04c-0.17-0.11-0.31-0.2-0.42-0.26
			c-0.11-0.06-0.25-0.12-0.43-0.18c-0.18-0.06-0.36-0.09-0.53-0.09c-0.4,0-0.75,0.1-1.03,0.3C129.73,55.89,129.6,56.12,129.6,56.38z
			"/>
	</g>
</g>
</svg>
